<svg xmlns="http://www.w3.org/2000/svg" viewBox="0 0 430 430">
  <defs>
    <style>
      .cls-1 {
        isolation: isolate;
      }

      .cls-2 {
        fill: #2ca58d;
      }

      .cls-3, .cls-5, .cls-7 {
        mix-blend-mode: multiply;
        opacity: 0.5;
      }

      .cls-4, .cls-5 {
        fill: #f24c00;
      }

      .cls-6, .cls-7 {
        fill: #b26836;
      }

      .cls-8 {
        fill: #121331;
      }
    </style>
  </defs>
  <g class="cls-1">
    <g id="Warstwa_1" data-name="Warstwa 1">
      <g>
        <path class="cls-2" d="M185.71,190.75c.45-.93,1-20.41,1.51-21.27a10.11,10.11,0,0,0-1.06-12.07,45.87,45.87,0,0,1,28.62-75.57,6.85,6.85,0,0,0,5.48-4.44,28.24,28.24,0,0,1,31.91-17.71,27.88,27.88,0,0,1,8.26,3A28.24,28.24,0,0,1,313.81,80l0,.09a3.88,3.88,0,0,0,5,4.46,29.61,29.61,0,1,1,12.33,57.76c10.55,6,16.3,40.23,14.65,52.11"/>
        <g class="cls-3">
          <path class="cls-2" d="M289.38,135.55a3.5,3.5,0,1,0-.79-7,58.5,58.5,0,0,0-22.95,7.25c8.52-20.6,16.53-31.12,16.69-31.32a3.5,3.5,0,1,0-5.52-4.3c-.42.53-9.12,11.85-18.25,34.41a53.87,53.87,0,0,0-16.9-24,3.5,3.5,0,1,0-4.35,5.48c13.18,10.46,16.39,26,17,29.87a279.62,279.62,0,0,0-9.54,34.59,3.51,3.51,0,0,0,2.71,4.15,3.65,3.65,0,0,0,.72.07,3.5,3.5,0,0,0,3.43-2.78,269.49,269.49,0,0,1,9.22-33.53C262.1,147,270.53,137.69,289.38,135.55Z"/>
          <path class="cls-2" d="M300.89,165.58a3.5,3.5,0,0,0-4.11-2.75,91.17,91.17,0,0,0-28.43,10.66,3.5,3.5,0,0,0,1.76,6.52,3.41,3.41,0,0,0,1.76-.48,84.68,84.68,0,0,1,26.27-9.84A3.49,3.49,0,0,0,300.89,165.58Z"/>
          <path class="cls-2" d="M220.28,140.83a3.5,3.5,0,0,0-4.3,5.52c6.4,5,12.2,13.73,17.23,26a3.51,3.51,0,0,0,3.24,2.17,3.46,3.46,0,0,0,1.33-.26,3.51,3.51,0,0,0,1.91-4.57C234.18,156.29,227.65,146.58,220.28,140.83Z"/>
        </g>
        <path class="cls-2" d="M152.71,114.84l14.1-64.7a3.22,3.22,0,0,0-5.3-3.07L142.62,64.12l-22.53-14.8a3,3,0,0,0-4.14.83L101,72.33,77,63.75A3.21,3.21,0,0,0,73.3,68.6l37.09,53.68"/>
        <path class="cls-4" d="M168.55,181.69H119l-8.29-33-.85-3.41-.85-3.39L107.82,137a26.91,26.91,0,1,1,52.73-10.4Z"/>
        <path class="cls-5" d="M127.81,145.27l-17.07,3.38-.85-3.41-.85-3.39.17,0,17.25-3.4a3.5,3.5,0,1,1,1.35,6.86Z"/>
        <path class="cls-6" d="M357.28,383.77H93.42a3,3,0,0,1-3-3V183.62l13.34-13.35,13.34,13.35,13.35-13.35,13.34,13.35,13.34-13.35,13.35,13.35,13.34-13.35,13.34,13.35,13.35-13.35,13.34,13.35,13.34-13.35,13.35,13.35,13.34-13.35,13.34,13.35,13.35-13.35,13.34,13.35,13.34-13.35,13.35,13.35,13.34-13.35,13.34,13.35Z"/>
        <polygon class="cls-7" points="317.25 343.74 317.25 170.28 303.91 183.62 290.57 170.28 277.22 183.62 277.22 383.77 357.28 383.77 317.25 343.74"/>
        <path class="cls-8" d="M359.76,181.14l-10.37-10.37A33.49,33.49,0,0,0,339,143.83a33.12,33.12,0,0,0-21.24-62.67.47.47,0,0,1-.46-.09.28.28,0,0,1-.1-.27.8.8,0,0,0,0-.15A31.75,31.75,0,0,0,258.91,58.1,31.77,31.77,0,0,0,217,76.16a3.38,3.38,0,0,1-2.67,2.21,49.37,49.37,0,0,0-30.8,81.33,6.64,6.64,0,0,1,1.11,7.21,3.59,3.59,0,0,0-3.28.89l-9.85,9.85L164,126.08a30.26,30.26,0,0,0-6.8-15.13s0-.09,0-.14l13-59.93a6.72,6.72,0,0,0-11.07-6.4L142.28,59.71,119.53,44.77a3.5,3.5,0,0,0-4.82,1L99.6,68.12,78.22,60.45a6.72,6.72,0,0,0-7.8,10.13L105,120.87a30.07,30.07,0,0,0-.61,17l9.42,37.58-7.61-7.61a3.61,3.61,0,0,0-4.95,0L87.94,181.14a3.54,3.54,0,0,0-1,2.48V383.77a3.5,3.5,0,0,0,3.5,3.5H357.28a3.5,3.5,0,0,0,3.5-3.5V183.62A3.54,3.54,0,0,0,359.76,181.14Zm-6,3.93V377.38L320.7,344.3a3.53,3.53,0,0,0,.05-.56v-165l7.37,7.37a3.59,3.59,0,0,0,4.95,0l10.87-10.87Zm-40,157.22-33,33V185.07l9.85-9.85,10.87,10.87a3.59,3.59,0,0,0,4.95,0l7.36-7.37ZM277.22,178.67l-1.31-1.32c1.63-.83,3.28-1.62,5-2.34Zm39,171.05,30.55,30.55h-61.1Zm-137-230.65a42.32,42.32,0,0,1,36-33.76,10.36,10.36,0,0,0,8.31-6.68,24.73,24.73,0,0,1,35.18-12.85,3.48,3.48,0,0,0,4.89-1.6,24.74,24.74,0,0,1,46.78,15l0,.13a7.28,7.28,0,0,0,2.21,6.86,7.41,7.41,0,0,0,7.16,1.66,26.11,26.11,0,1,1,10.88,50.93,3.5,3.5,0,0,0-1.26,6.51,26.32,26.32,0,0,1,13.12,21.81,3.19,3.19,0,0,0-1,.67L330.6,178.67,319.73,167.8a3.61,3.61,0,0,0-5,0l-10.87,10.87-8.4-8.4c.87-.2,1.74-.4,2.63-.58a3.5,3.5,0,1,0-1.36-6.86,91.69,91.69,0,0,0-26.06,9.34l-4.37-4.37a3.6,3.6,0,0,0-4.94,0l-8.54,8.53a268.23,268.23,0,0,1,8-27.86c1.25-1.5,9.68-10.78,28.53-12.91a3.5,3.5,0,0,0-.79-7,58.5,58.5,0,0,0-22.95,7.25c8.52-20.6,16.54-31.12,16.69-31.32a3.5,3.5,0,1,0-5.52-4.3c-.42.53-9.12,11.85-18.25,34.41a53.87,53.87,0,0,0-16.9-24,3.5,3.5,0,1,0-4.35,5.49c13.18,10.45,16.39,26,17,29.86a272.89,272.89,0,0,0-8.15,28.32l-6.49-6.49a3.38,3.38,0,0,0-1.08-.71c-5.27-12.06-11.42-20.89-18.31-26.26a3.5,3.5,0,0,0-4.3,5.52c6,4.7,11.51,12.72,16.33,23.86l-8.46,8.46L213,167.8a3.61,3.61,0,0,0-4.95,0l-10.87,10.87-7.11-7.11.12-.19a13.53,13.53,0,0,0-1.37-16.25A42.18,42.18,0,0,1,179.22,119.07ZM76.68,67.34l23.11,8.29a3.51,3.51,0,0,0,4.09-1.34l14.7-21.77L140.7,67a3.49,3.49,0,0,0,4.27-.33L163.2,50.26l-12,55.23A30.2,30.2,0,0,0,134,100a30.57,30.57,0,0,0-5.93.59,30.12,30.12,0,0,0-19.46,13Zm35.8,73.83-1.27-5a23.43,23.43,0,0,1,18.18-28.66,23.37,23.37,0,0,1,27.7,19.61l6.48,44.68-4-4a3.61,3.61,0,0,0-5,0l-10.87,10.87L132.92,167.8a3.61,3.61,0,0,0-4.95,0l-7,7L114.18,148l13.63-2.69a3.5,3.5,0,1,0-1.35-6.86Zm-18.56,43.9,9.84-9.85,10.87,10.87a3.59,3.59,0,0,0,5,0l10.87-10.87,10.87,10.87a3.59,3.59,0,0,0,5,0l10.86-10.87L168,186.09a3.59,3.59,0,0,0,4.95,0l10.87-10.87,10.87,10.87a3.59,3.59,0,0,0,4.95,0l10.87-10.87,10.87,10.87a3.59,3.59,0,0,0,5,0l10.86-10.87,10.87,10.87a3.59,3.59,0,0,0,4.95,0l10.87-10.87,3.73,3.73.1.11,6,6v195.2H93.92Z"/>
      </g>
    </g>
  </g>
</svg>
