<?xml version="1.0" encoding="utf-8"?>
<!-- Generator: Adobe Illustrator 24.0.2, SVG Export Plug-In . SVG Version: 6.00 Build 0)  -->
<svg version="1.1" id="Warstwa_1" xmlns="http://www.w3.org/2000/svg" xmlns:xlink="http://www.w3.org/1999/xlink" x="0px" y="0px"
	 viewBox="0 0 430 430" style="enable-background:new 0 0 430 430;" xml:space="preserve">
<style type="text/css">
	.st0{fill:#6888b1;}
	.st1{opacity:0.5;}
	.st2{opacity:0;}
	.st3{fill:#121331;}
	.st4{fill:#3A3347;}
	.st5{fill:#F28BA8;}
	.st6{fill:#FFC738;}
	.st7{fill:#EBE6EF;}
	.st8{fill:#2CA58D;}
	.st9{fill:#F24C00;}
	.st10{fill:#F9C9C0;}
	.st11{fill:#646E78;}
	.st12{opacity:0.4;}
	.st13{fill:#B26836;}
	.st14{opacity:0.8;}
</style>
<g>
	<path class="st0" d="M360.68,79.35H234.93c-1.93,0-3.5,1.57-3.5,3.5v125.8c0,1.93,1.57,3.5,3.5,3.5h41.81l-28.36,136.28
		c-0.21,1.03,0.05,2.1,0.71,2.92c0.67,0.82,1.66,1.29,2.72,1.29h60.67c1.5,0,2.83-0.95,3.31-2.36l48.21-140.49
		c0.12-0.37,0.19-0.75,0.19-1.14V82.85C364.18,80.92,362.61,79.35,360.68,79.35z"/>
</g>
<g>
	<path class="st0" d="M195.07,79.35H69.32c-1.93,0-3.5,1.57-3.5,3.5v125.8c0,1.93,1.57,3.5,3.5,3.5h41.81L82.76,348.43
		c-0.21,1.03,0.05,2.1,0.71,2.92c0.66,0.82,1.66,1.29,2.71,1.29h60.67c1.5,0,2.83-0.95,3.31-2.36l48.21-140.49
		c0.12-0.37,0.19-0.75,0.19-1.14V82.85C198.57,80.92,197,79.35,195.07,79.35z"/>
</g>
<g class="st1">
	<path class="st0" d="M306.74,187.15l-34.44,165.5h-20.5c-1.05,0-2.05-0.48-2.71-1.3c-0.67-0.81-0.93-1.89-0.71-2.92l28.36-136.28
		h-41.81c-1.93,0-3.5-1.56-3.5-3.5V82.85c0-1.93,1.57-3.5,3.5-3.5h22.5v104.3c0,1.94,1.57,3.5,3.5,3.5H306.74z"/>
</g>
<g class="st1">
	<path class="st0" d="M141.13,187.15l-34.44,165.5h-20.5c-1.05,0-2.05-0.48-2.71-1.3c-0.67-0.81-0.93-1.89-0.71-2.92l28.36-136.28
		H69.32c-1.93,0-3.5-1.56-3.5-3.5V82.85c0-1.93,1.57-3.5,3.5-3.5h22.5v104.3c0,1.94,1.57,3.5,3.5,3.5H141.13z"/>
</g>
</svg>
