<svg id="visual" viewBox="0 0 960 300" width="960" height="300" xmlns="http://www.w3.org/2000/svg" xmlns:xlink="http://www.w3.org/1999/xlink" version="1.1"><rect x="0" y="0" width="960" height="300" fill="#e0ecc1"></rect><path d="M0 204L40 213C80 222 160 240 240 247.5C320 255 400 252 480 242.7C560 233.3 640 217.7 720 211.5C800 205.3 880 208.7 920 210.3L960 212L960 301L920 301C880 301 800 301 720 301C640 301 560 301 480 301C400 301 320 301 240 301C160 301 80 301 40 301L0 301Z" fill="#6888b1" stroke-linecap="round" stroke-linejoin="miter"></path></svg>