<svg id="visual" viewBox="0 0 960 300" width="960" height="300" xmlns="http://www.w3.org/2000/svg" xmlns:xlink="http://www.w3.org/1999/xlink" version="1.1"><rect x="0" y="0" width="960" height="300" fill="#e0ecc1"></rect><path d="M0 56L32 62.3C64 68.7 128 81.3 192 87.3C256 93.3 320 92.7 384 85.8C448 79 512 66 576 62.2C640 58.3 704 63.7 768 67.8C832 72 896 75 928 76.5L960 78L960 0L928 0C896 0 832 0 768 0C704 0 640 0 576 0C512 0 448 0 384 0C320 0 256 0 192 0C128 0 64 0 32 0L0 0Z" fill="#6888b1" stroke-linecap="round" stroke-linejoin="miter"></path></svg>